<mxfile host="app.diagrams.net" modified="2022-09-16T13:49:32.364Z" agent="5.0 (Windows NT 10.0; Win64; x64) AppleWebKit/537.36 (KHTML, like Gecko) Chrome/105.0.0.0 Safari/537.36" etag="W1htR6czU4ZKRuKTs8ZP" version="20.3.1" type="github">
  <diagram id="C5RBs43oDa-KdzZeNtuy" name="Page-1">
    <mxGraphModel dx="1391" dy="576" grid="1" gridSize="10" guides="1" tooltips="1" connect="1" arrows="1" fold="1" page="1" pageScale="1" pageWidth="827" pageHeight="1169" math="0" shadow="0">
      <root>
        <object label="" id="WIyWlLk6GJQsqaUBKTNV-0">
          <mxCell />
        </object>
        <mxCell id="WIyWlLk6GJQsqaUBKTNV-1" parent="WIyWlLk6GJQsqaUBKTNV-0" />
        <mxCell id="WIyWlLk6GJQsqaUBKTNV-2" value="" style="rounded=0;html=1;jettySize=auto;orthogonalLoop=1;fontSize=11;endArrow=block;endFill=0;endSize=8;strokeWidth=1;shadow=0;labelBackgroundColor=none;edgeStyle=orthogonalEdgeStyle;entryX=0;entryY=0.5;entryDx=0;entryDy=0;" parent="WIyWlLk6GJQsqaUBKTNV-1" source="WIyWlLk6GJQsqaUBKTNV-3" edge="1" target="UAvPD8WfjczdkTZnf0Nm-73">
          <mxGeometry relative="1" as="geometry">
            <mxPoint x="-620" y="810" as="targetPoint" />
          </mxGeometry>
        </mxCell>
        <mxCell id="WIyWlLk6GJQsqaUBKTNV-3" value="Start" style="rounded=1;whiteSpace=wrap;html=1;fontSize=12;glass=0;strokeWidth=1;shadow=0;" parent="WIyWlLk6GJQsqaUBKTNV-1" vertex="1">
          <mxGeometry x="-740" y="790" width="80" height="40" as="geometry" />
        </mxCell>
        <mxCell id="C8QLcQqAlrhgvGibjwOG-6" value="" style="edgeStyle=orthogonalEdgeStyle;rounded=0;orthogonalLoop=1;jettySize=auto;html=1;" edge="1" parent="WIyWlLk6GJQsqaUBKTNV-1" source="UAvPD8WfjczdkTZnf0Nm-73" target="C8QLcQqAlrhgvGibjwOG-5">
          <mxGeometry relative="1" as="geometry" />
        </mxCell>
        <mxCell id="UAvPD8WfjczdkTZnf0Nm-73" value="input&lt;br&gt;n" style="shape=parallelogram;perimeter=parallelogramPerimeter;whiteSpace=wrap;html=1;fixedSize=1;" parent="WIyWlLk6GJQsqaUBKTNV-1" vertex="1">
          <mxGeometry x="-610" y="785" width="100" height="50" as="geometry" />
        </mxCell>
        <mxCell id="UAvPD8WfjczdkTZnf0Nm-83" value="Yes" style="edgeStyle=orthogonalEdgeStyle;rounded=0;orthogonalLoop=1;jettySize=auto;html=0;" parent="WIyWlLk6GJQsqaUBKTNV-1" source="UAvPD8WfjczdkTZnf0Nm-76" target="UAvPD8WfjczdkTZnf0Nm-82" edge="1">
          <mxGeometry relative="1" as="geometry" />
        </mxCell>
        <mxCell id="SS6zmwQ81CMFTvqJXIf2-1" value="No" style="edgeStyle=orthogonalEdgeStyle;rounded=0;orthogonalLoop=1;jettySize=auto;html=1;" parent="WIyWlLk6GJQsqaUBKTNV-1" source="UAvPD8WfjczdkTZnf0Nm-76" target="SS6zmwQ81CMFTvqJXIf2-0" edge="1">
          <mxGeometry relative="1" as="geometry" />
        </mxCell>
        <mxCell id="UAvPD8WfjczdkTZnf0Nm-76" value="for j in range((10**(n-1)), (10**n)):" style="rhombus;whiteSpace=wrap;html=1;" parent="WIyWlLk6GJQsqaUBKTNV-1" vertex="1">
          <mxGeometry x="-40" y="741.88" width="250" height="136.25" as="geometry" />
        </mxCell>
        <mxCell id="UAvPD8WfjczdkTZnf0Nm-80" value="" style="edgeStyle=orthogonalEdgeStyle;rounded=0;orthogonalLoop=1;jettySize=auto;html=0;" parent="WIyWlLk6GJQsqaUBKTNV-1" source="UAvPD8WfjczdkTZnf0Nm-78" target="UAvPD8WfjczdkTZnf0Nm-76" edge="1">
          <mxGeometry relative="1" as="geometry" />
        </mxCell>
        <mxCell id="UAvPD8WfjczdkTZnf0Nm-78" value="stro_list = []" style="whiteSpace=wrap;html=1;" parent="WIyWlLk6GJQsqaUBKTNV-1" vertex="1">
          <mxGeometry x="-200" y="788.13" width="110" height="43.75" as="geometry" />
        </mxCell>
        <mxCell id="UAvPD8WfjczdkTZnf0Nm-93" value="" style="edgeStyle=orthogonalEdgeStyle;rounded=0;orthogonalLoop=1;jettySize=auto;html=0;entryX=0;entryY=0.5;entryDx=0;entryDy=0;exitX=0.5;exitY=0;exitDx=0;exitDy=0;" parent="WIyWlLk6GJQsqaUBKTNV-1" source="UAvPD8WfjczdkTZnf0Nm-82" target="UAvPD8WfjczdkTZnf0Nm-94" edge="1">
          <mxGeometry relative="1" as="geometry">
            <mxPoint x="160.5" y="590" as="targetPoint" />
          </mxGeometry>
        </mxCell>
        <mxCell id="UAvPD8WfjczdkTZnf0Nm-82" value="left = 0&lt;br&gt;right = len(str(j))-1&lt;br&gt;stro_val = None" style="whiteSpace=wrap;html=1;" parent="WIyWlLk6GJQsqaUBKTNV-1" vertex="1">
          <mxGeometry x="100" y="640" width="120" height="60" as="geometry" />
        </mxCell>
        <mxCell id="UAvPD8WfjczdkTZnf0Nm-100" value="Yes" style="edgeStyle=orthogonalEdgeStyle;rounded=0;orthogonalLoop=1;jettySize=auto;html=0;entryX=0;entryY=0.5;entryDx=0;entryDy=0;" parent="WIyWlLk6GJQsqaUBKTNV-1" source="UAvPD8WfjczdkTZnf0Nm-94" target="UAvPD8WfjczdkTZnf0Nm-96" edge="1">
          <mxGeometry relative="1" as="geometry" />
        </mxCell>
        <mxCell id="0LXEsNadSQLcKjnHdv3D-3" value="No" style="edgeStyle=orthogonalEdgeStyle;rounded=0;orthogonalLoop=1;jettySize=auto;html=1;entryX=0.5;entryY=0;entryDx=0;entryDy=0;" parent="WIyWlLk6GJQsqaUBKTNV-1" source="UAvPD8WfjczdkTZnf0Nm-94" target="0LXEsNadSQLcKjnHdv3D-0" edge="1">
          <mxGeometry relative="1" as="geometry" />
        </mxCell>
        <mxCell id="UAvPD8WfjczdkTZnf0Nm-94" value="while (left &amp;lt;= right) and (stro_val == None)" style="rhombus;whiteSpace=wrap;html=1;" parent="WIyWlLk6GJQsqaUBKTNV-1" vertex="1">
          <mxGeometry x="243.5" y="533.75" width="160" height="122.5" as="geometry" />
        </mxCell>
        <mxCell id="UAvPD8WfjczdkTZnf0Nm-105" value="Yes" style="edgeStyle=orthogonalEdgeStyle;rounded=0;orthogonalLoop=1;jettySize=auto;html=0;" parent="WIyWlLk6GJQsqaUBKTNV-1" source="UAvPD8WfjczdkTZnf0Nm-96" target="UAvPD8WfjczdkTZnf0Nm-102" edge="1">
          <mxGeometry relative="1" as="geometry" />
        </mxCell>
        <mxCell id="UAvPD8WfjczdkTZnf0Nm-113" value="No" style="edgeStyle=orthogonalEdgeStyle;rounded=0;orthogonalLoop=1;jettySize=auto;html=0;" parent="WIyWlLk6GJQsqaUBKTNV-1" source="UAvPD8WfjczdkTZnf0Nm-96" target="UAvPD8WfjczdkTZnf0Nm-112" edge="1">
          <mxGeometry relative="1" as="geometry" />
        </mxCell>
        <mxCell id="UAvPD8WfjczdkTZnf0Nm-96" value="if (str(j)[right] not in dict) or&lt;br&gt;(str(j)[left] != dict[str(j)[right]" style="rhombus;whiteSpace=wrap;html=1;" parent="WIyWlLk6GJQsqaUBKTNV-1" vertex="1">
          <mxGeometry x="445.25" y="360.25" width="246.5" height="120" as="geometry" />
        </mxCell>
        <mxCell id="UAvPD8WfjczdkTZnf0Nm-106" style="edgeStyle=orthogonalEdgeStyle;rounded=0;orthogonalLoop=1;jettySize=auto;html=0;entryX=1;entryY=0.5;entryDx=0;entryDy=0;" parent="WIyWlLk6GJQsqaUBKTNV-1" source="UAvPD8WfjczdkTZnf0Nm-102" target="UAvPD8WfjczdkTZnf0Nm-94" edge="1">
          <mxGeometry relative="1" as="geometry">
            <Array as="points">
              <mxPoint x="773.5" y="190" />
              <mxPoint x="773.5" y="670" />
              <mxPoint x="473.5" y="670" />
              <mxPoint x="473.5" y="595" />
            </Array>
          </mxGeometry>
        </mxCell>
        <mxCell id="UAvPD8WfjczdkTZnf0Nm-102" value="stro_val == False" style="whiteSpace=wrap;html=1;" parent="WIyWlLk6GJQsqaUBKTNV-1" vertex="1">
          <mxGeometry x="508.5" y="160" width="120" height="60" as="geometry" />
        </mxCell>
        <mxCell id="UAvPD8WfjczdkTZnf0Nm-114" style="edgeStyle=orthogonalEdgeStyle;rounded=0;orthogonalLoop=1;jettySize=auto;html=0;" parent="WIyWlLk6GJQsqaUBKTNV-1" source="UAvPD8WfjczdkTZnf0Nm-112" edge="1">
          <mxGeometry relative="1" as="geometry">
            <mxPoint x="403.5" y="594.9999999999998" as="targetPoint" />
          </mxGeometry>
        </mxCell>
        <mxCell id="UAvPD8WfjczdkTZnf0Nm-112" value="left++&lt;br&gt;right--" style="whiteSpace=wrap;html=1;" parent="WIyWlLk6GJQsqaUBKTNV-1" vertex="1">
          <mxGeometry x="508.5" y="565" width="120" height="60" as="geometry" />
        </mxCell>
        <mxCell id="UAvPD8WfjczdkTZnf0Nm-119" value="Yes" style="edgeStyle=orthogonalEdgeStyle;rounded=0;orthogonalLoop=1;jettySize=auto;html=0;exitX=1;exitY=0.5;exitDx=0;exitDy=0;entryX=1;entryY=0.5;entryDx=0;entryDy=0;" parent="WIyWlLk6GJQsqaUBKTNV-1" source="UAvPD8WfjczdkTZnf0Nm-115" target="UAvPD8WfjczdkTZnf0Nm-118" edge="1">
          <mxGeometry relative="1" as="geometry">
            <mxPoint x="500.5" y="857.5" as="targetPoint" />
          </mxGeometry>
        </mxCell>
        <mxCell id="0LXEsNadSQLcKjnHdv3D-1" style="edgeStyle=orthogonalEdgeStyle;rounded=0;orthogonalLoop=1;jettySize=auto;html=1;entryX=1;entryY=0.5;entryDx=0;entryDy=0;" parent="WIyWlLk6GJQsqaUBKTNV-1" source="UAvPD8WfjczdkTZnf0Nm-115" target="UAvPD8WfjczdkTZnf0Nm-76" edge="1">
          <mxGeometry relative="1" as="geometry" />
        </mxCell>
        <mxCell id="0LXEsNadSQLcKjnHdv3D-2" value="No" style="edgeLabel;html=1;align=center;verticalAlign=middle;resizable=0;points=[];" parent="0LXEsNadSQLcKjnHdv3D-1" vertex="1" connectable="0">
          <mxGeometry x="-0.7718" y="-2" relative="1" as="geometry">
            <mxPoint as="offset" />
          </mxGeometry>
        </mxCell>
        <mxCell id="UAvPD8WfjczdkTZnf0Nm-115" value="if stro_val == None" style="rhombus;whiteSpace=wrap;html=1;" parent="WIyWlLk6GJQsqaUBKTNV-1" vertex="1">
          <mxGeometry x="360.5" y="777.75" width="120" height="126.25" as="geometry" />
        </mxCell>
        <mxCell id="UAvPD8WfjczdkTZnf0Nm-123" style="edgeStyle=orthogonalEdgeStyle;rounded=0;orthogonalLoop=1;jettySize=auto;html=0;entryX=1;entryY=0.5;entryDx=0;entryDy=0;" parent="WIyWlLk6GJQsqaUBKTNV-1" source="UAvPD8WfjczdkTZnf0Nm-118" target="UAvPD8WfjczdkTZnf0Nm-76" edge="1">
          <mxGeometry relative="1" as="geometry" />
        </mxCell>
        <mxCell id="UAvPD8WfjczdkTZnf0Nm-118" value="stro_list.append(str(j))" style="whiteSpace=wrap;html=1;" parent="WIyWlLk6GJQsqaUBKTNV-1" vertex="1">
          <mxGeometry x="360.5" y="950" width="173" height="30" as="geometry" />
        </mxCell>
        <mxCell id="SS6zmwQ81CMFTvqJXIf2-0" value="return stro_list" style="ellipse;whiteSpace=wrap;html=1;" parent="WIyWlLk6GJQsqaUBKTNV-1" vertex="1">
          <mxGeometry x="100" y="920" width="120" height="60" as="geometry" />
        </mxCell>
        <mxCell id="SS6zmwQ81CMFTvqJXIf2-3" style="edgeStyle=orthogonalEdgeStyle;rounded=0;orthogonalLoop=1;jettySize=auto;html=1;" parent="WIyWlLk6GJQsqaUBKTNV-1" source="SS6zmwQ81CMFTvqJXIf2-2" target="UAvPD8WfjczdkTZnf0Nm-102" edge="1">
          <mxGeometry relative="1" as="geometry" />
        </mxCell>
        <mxCell id="SS6zmwQ81CMFTvqJXIf2-2" value="Termination Condition Being Applied" style="ellipse;shape=cloud;whiteSpace=wrap;html=1;" parent="WIyWlLk6GJQsqaUBKTNV-1" vertex="1">
          <mxGeometry x="273.5" y="210" width="150" height="80" as="geometry" />
        </mxCell>
        <mxCell id="SS6zmwQ81CMFTvqJXIf2-4" value="" style="rounded=0;html=1;jettySize=auto;orthogonalLoop=1;fontSize=11;endArrow=block;endFill=0;endSize=8;strokeWidth=1;shadow=0;labelBackgroundColor=none;edgeStyle=orthogonalEdgeStyle;" parent="WIyWlLk6GJQsqaUBKTNV-1" source="SS6zmwQ81CMFTvqJXIf2-5" edge="1">
          <mxGeometry relative="1" as="geometry">
            <mxPoint x="966.9999999999995" y="594" as="targetPoint" />
          </mxGeometry>
        </mxCell>
        <mxCell id="SS6zmwQ81CMFTvqJXIf2-5" value="Start" style="rounded=1;whiteSpace=wrap;html=1;fontSize=12;glass=0;strokeWidth=1;shadow=0;" parent="WIyWlLk6GJQsqaUBKTNV-1" vertex="1">
          <mxGeometry x="827" y="574" width="80" height="40" as="geometry" />
        </mxCell>
        <mxCell id="SS6zmwQ81CMFTvqJXIf2-6" value="" style="edgeStyle=orthogonalEdgeStyle;rounded=0;orthogonalLoop=1;jettySize=auto;html=0;" parent="WIyWlLk6GJQsqaUBKTNV-1" source="SS6zmwQ81CMFTvqJXIf2-7" target="SS6zmwQ81CMFTvqJXIf2-12" edge="1">
          <mxGeometry relative="1" as="geometry" />
        </mxCell>
        <mxCell id="SS6zmwQ81CMFTvqJXIf2-7" value="Input&lt;br&gt;Array" style="shape=parallelogram;perimeter=parallelogramPerimeter;whiteSpace=wrap;html=1;fixedSize=1;" parent="WIyWlLk6GJQsqaUBKTNV-1" vertex="1">
          <mxGeometry x="947" y="569" width="100" height="50" as="geometry" />
        </mxCell>
        <mxCell id="SS6zmwQ81CMFTvqJXIf2-11" value="" style="edgeStyle=orthogonalEdgeStyle;rounded=0;orthogonalLoop=1;jettySize=auto;html=0;entryX=0;entryY=0.5;entryDx=0;entryDy=0;" parent="WIyWlLk6GJQsqaUBKTNV-1" source="SS6zmwQ81CMFTvqJXIf2-12" target="0LXEsNadSQLcKjnHdv3D-10" edge="1">
          <mxGeometry relative="1" as="geometry">
            <mxPoint x="1257" y="594" as="targetPoint" />
          </mxGeometry>
        </mxCell>
        <mxCell id="SS6zmwQ81CMFTvqJXIf2-12" value="stro_chars = dict({&lt;br&gt;&quot;0&quot;:&quot;0&quot;,&lt;br&gt;&quot;1&quot;:&quot;1&quot;,&lt;br&gt;&quot;6&quot;:&quot;9&quot;,&lt;br&gt;&quot;8&quot;:&quot;8&quot;&lt;br&gt;&quot;9&quot;:&quot;6&quot;&lt;br&gt;})" style="whiteSpace=wrap;html=1;" parent="WIyWlLk6GJQsqaUBKTNV-1" vertex="1">
          <mxGeometry x="1087" y="520.25" width="130" height="147.5" as="geometry" />
        </mxCell>
        <mxCell id="SS6zmwQ81CMFTvqJXIf2-36" value="Iterative" style="ellipse;shape=cloud;whiteSpace=wrap;html=1;" parent="WIyWlLk6GJQsqaUBKTNV-1" vertex="1">
          <mxGeometry x="-770" y="644" width="120" height="80" as="geometry" />
        </mxCell>
        <mxCell id="SS6zmwQ81CMFTvqJXIf2-37" value="Recursive" style="ellipse;shape=cloud;whiteSpace=wrap;html=1;" parent="WIyWlLk6GJQsqaUBKTNV-1" vertex="1">
          <mxGeometry x="827" y="424" width="120" height="80" as="geometry" />
        </mxCell>
        <mxCell id="0LXEsNadSQLcKjnHdv3D-4" style="edgeStyle=orthogonalEdgeStyle;rounded=0;orthogonalLoop=1;jettySize=auto;html=1;entryX=0.5;entryY=0;entryDx=0;entryDy=0;" parent="WIyWlLk6GJQsqaUBKTNV-1" source="0LXEsNadSQLcKjnHdv3D-0" target="UAvPD8WfjczdkTZnf0Nm-115" edge="1">
          <mxGeometry relative="1" as="geometry" />
        </mxCell>
        <mxCell id="0LXEsNadSQLcKjnHdv3D-0" value="j++" style="whiteSpace=wrap;html=1;" parent="WIyWlLk6GJQsqaUBKTNV-1" vertex="1">
          <mxGeometry x="350" y="700" width="53.5" height="30" as="geometry" />
        </mxCell>
        <mxCell id="0LXEsNadSQLcKjnHdv3D-13" value="" style="edgeStyle=orthogonalEdgeStyle;rounded=0;orthogonalLoop=1;jettySize=auto;html=1;entryX=0;entryY=0.5;entryDx=0;entryDy=0;" parent="WIyWlLk6GJQsqaUBKTNV-1" source="0LXEsNadSQLcKjnHdv3D-9" target="0LXEsNadSQLcKjnHdv3D-14" edge="1">
          <mxGeometry relative="1" as="geometry">
            <mxPoint x="1727.0000000000005" y="594" as="targetPoint" />
          </mxGeometry>
        </mxCell>
        <mxCell id="0LXEsNadSQLcKjnHdv3D-9" value="left = 0&lt;br&gt;right = len(Array[n])-1&lt;br&gt;stro_val = None" style="whiteSpace=wrap;html=1;" parent="WIyWlLk6GJQsqaUBKTNV-1" vertex="1">
          <mxGeometry x="1537" y="564" width="120" height="60" as="geometry" />
        </mxCell>
        <mxCell id="0LXEsNadSQLcKjnHdv3D-11" value="" style="edgeStyle=orthogonalEdgeStyle;rounded=0;orthogonalLoop=1;jettySize=auto;html=1;" parent="WIyWlLk6GJQsqaUBKTNV-1" source="0LXEsNadSQLcKjnHdv3D-10" target="0LXEsNadSQLcKjnHdv3D-9" edge="1">
          <mxGeometry relative="1" as="geometry" />
        </mxCell>
        <mxCell id="0LXEsNadSQLcKjnHdv3D-10" value="def strobogrammatic_recursive(n, stro_list = []):" style="shape=step;perimeter=stepPerimeter;whiteSpace=wrap;html=1;fixedSize=1;" parent="WIyWlLk6GJQsqaUBKTNV-1" vertex="1">
          <mxGeometry x="1257" y="556.5" width="220" height="75" as="geometry" />
        </mxCell>
        <mxCell id="0LXEsNadSQLcKjnHdv3D-16" style="edgeStyle=orthogonalEdgeStyle;rounded=0;orthogonalLoop=1;jettySize=auto;html=1;entryX=0;entryY=0.5;entryDx=0;entryDy=0;" parent="WIyWlLk6GJQsqaUBKTNV-1" source="0LXEsNadSQLcKjnHdv3D-14" target="0LXEsNadSQLcKjnHdv3D-35" edge="1">
          <mxGeometry relative="1" as="geometry">
            <mxPoint x="1863.5" y="420.25" as="targetPoint" />
          </mxGeometry>
        </mxCell>
        <mxCell id="0LXEsNadSQLcKjnHdv3D-17" value="Yes" style="edgeLabel;html=1;align=center;verticalAlign=middle;resizable=0;points=[];" parent="0LXEsNadSQLcKjnHdv3D-16" vertex="1" connectable="0">
          <mxGeometry x="-0.0661" relative="1" as="geometry">
            <mxPoint as="offset" />
          </mxGeometry>
        </mxCell>
        <mxCell id="0LXEsNadSQLcKjnHdv3D-28" value="No" style="edgeStyle=orthogonalEdgeStyle;rounded=0;orthogonalLoop=1;jettySize=auto;html=1;entryX=0.5;entryY=0;entryDx=0;entryDy=0;" parent="WIyWlLk6GJQsqaUBKTNV-1" source="0LXEsNadSQLcKjnHdv3D-14" target="0LXEsNadSQLcKjnHdv3D-31" edge="1">
          <mxGeometry relative="1" as="geometry">
            <mxPoint x="1797" y="740" as="targetPoint" />
          </mxGeometry>
        </mxCell>
        <mxCell id="0LXEsNadSQLcKjnHdv3D-14" value="while (left &amp;lt;= right) and (stro_val == None)" style="rhombus;whiteSpace=wrap;html=1;" parent="WIyWlLk6GJQsqaUBKTNV-1" vertex="1">
          <mxGeometry x="1717" y="533.75" width="160" height="122.5" as="geometry" />
        </mxCell>
        <mxCell id="0LXEsNadSQLcKjnHdv3D-19" value="Yes" style="edgeStyle=orthogonalEdgeStyle;rounded=0;orthogonalLoop=1;jettySize=auto;html=1;entryX=0;entryY=0.5;entryDx=0;entryDy=0;exitX=0.5;exitY=0;exitDx=0;exitDy=0;" parent="WIyWlLk6GJQsqaUBKTNV-1" source="0LXEsNadSQLcKjnHdv3D-35" target="0LXEsNadSQLcKjnHdv3D-18" edge="1">
          <mxGeometry relative="1" as="geometry">
            <mxPoint x="2028.454545454545" y="320.2775482093666" as="sourcePoint" />
          </mxGeometry>
        </mxCell>
        <mxCell id="0LXEsNadSQLcKjnHdv3D-23" value="No" style="edgeStyle=orthogonalEdgeStyle;rounded=0;orthogonalLoop=1;jettySize=auto;html=1;entryX=0;entryY=0.5;entryDx=0;entryDy=0;exitX=1;exitY=0.5;exitDx=0;exitDy=0;" parent="WIyWlLk6GJQsqaUBKTNV-1" source="0LXEsNadSQLcKjnHdv3D-35" target="0LXEsNadSQLcKjnHdv3D-22" edge="1">
          <mxGeometry relative="1" as="geometry">
            <mxPoint x="2193.5" y="420.25" as="sourcePoint" />
          </mxGeometry>
        </mxCell>
        <mxCell id="0LXEsNadSQLcKjnHdv3D-24" style="edgeStyle=orthogonalEdgeStyle;rounded=0;orthogonalLoop=1;jettySize=auto;html=1;entryX=0;entryY=0.5;entryDx=0;entryDy=0;" parent="WIyWlLk6GJQsqaUBKTNV-1" source="0LXEsNadSQLcKjnHdv3D-18" target="0LXEsNadSQLcKjnHdv3D-22" edge="1">
          <mxGeometry relative="1" as="geometry" />
        </mxCell>
        <mxCell id="0LXEsNadSQLcKjnHdv3D-18" value="stro_val == False" style="whiteSpace=wrap;html=1;" parent="WIyWlLk6GJQsqaUBKTNV-1" vertex="1">
          <mxGeometry x="2187" y="200" width="120" height="60" as="geometry" />
        </mxCell>
        <mxCell id="0LXEsNadSQLcKjnHdv3D-25" style="edgeStyle=orthogonalEdgeStyle;rounded=0;orthogonalLoop=1;jettySize=auto;html=1;entryX=1;entryY=0.5;entryDx=0;entryDy=0;" parent="WIyWlLk6GJQsqaUBKTNV-1" source="0LXEsNadSQLcKjnHdv3D-22" target="0LXEsNadSQLcKjnHdv3D-14" edge="1">
          <mxGeometry relative="1" as="geometry">
            <mxPoint x="2427" y="500" as="targetPoint" />
            <Array as="points">
              <mxPoint x="2427" y="595" />
            </Array>
          </mxGeometry>
        </mxCell>
        <mxCell id="0LXEsNadSQLcKjnHdv3D-22" value="left++&lt;br&gt;right--" style="whiteSpace=wrap;html=1;" parent="WIyWlLk6GJQsqaUBKTNV-1" vertex="1">
          <mxGeometry x="2367" y="390.25" width="120" height="60" as="geometry" />
        </mxCell>
        <mxCell id="0LXEsNadSQLcKjnHdv3D-29" value="Yes" style="edgeStyle=orthogonalEdgeStyle;rounded=0;orthogonalLoop=1;jettySize=auto;html=0;exitX=1;exitY=0.5;exitDx=0;exitDy=0;" parent="WIyWlLk6GJQsqaUBKTNV-1" source="0LXEsNadSQLcKjnHdv3D-31" target="0LXEsNadSQLcKjnHdv3D-33" edge="1">
          <mxGeometry relative="1" as="geometry" />
        </mxCell>
        <mxCell id="0LXEsNadSQLcKjnHdv3D-30" value="No" style="edgeStyle=orthogonalEdgeStyle;rounded=0;orthogonalLoop=1;jettySize=auto;html=0;entryX=1;entryY=0.5;entryDx=0;entryDy=0;" parent="WIyWlLk6GJQsqaUBKTNV-1" source="0LXEsNadSQLcKjnHdv3D-31" target="0LXEsNadSQLcKjnHdv3D-34" edge="1">
          <mxGeometry relative="1" as="geometry">
            <mxPoint x="1677" y="849.9999999999998" as="targetPoint" />
          </mxGeometry>
        </mxCell>
        <mxCell id="0LXEsNadSQLcKjnHdv3D-31" value="if stro_val == None" style="rhombus;whiteSpace=wrap;html=1;" parent="WIyWlLk6GJQsqaUBKTNV-1" vertex="1">
          <mxGeometry x="1737" y="720" width="120" height="126.25" as="geometry" />
        </mxCell>
        <mxCell id="0LXEsNadSQLcKjnHdv3D-32" style="edgeStyle=orthogonalEdgeStyle;rounded=0;orthogonalLoop=1;jettySize=auto;html=0;entryX=1;entryY=0.5;entryDx=0;entryDy=0;" parent="WIyWlLk6GJQsqaUBKTNV-1" source="0LXEsNadSQLcKjnHdv3D-33" target="0LXEsNadSQLcKjnHdv3D-34" edge="1">
          <mxGeometry relative="1" as="geometry">
            <mxPoint x="1677" y="849.9999999999998" as="targetPoint" />
          </mxGeometry>
        </mxCell>
        <mxCell id="0LXEsNadSQLcKjnHdv3D-33" value="stro_list.append(str(Array[n]))" style="whiteSpace=wrap;html=1;" parent="WIyWlLk6GJQsqaUBKTNV-1" vertex="1">
          <mxGeometry x="1831" y="896.25" width="166" height="30" as="geometry" />
        </mxCell>
        <mxCell id="0LXEsNadSQLcKjnHdv3D-36" style="edgeStyle=orthogonalEdgeStyle;rounded=0;orthogonalLoop=1;jettySize=auto;html=1;entryX=0.5;entryY=1;entryDx=0;entryDy=0;" parent="WIyWlLk6GJQsqaUBKTNV-1" source="0LXEsNadSQLcKjnHdv3D-34" target="0LXEsNadSQLcKjnHdv3D-10" edge="1">
          <mxGeometry relative="1" as="geometry" />
        </mxCell>
        <mxCell id="0LXEsNadSQLcKjnHdv3D-37" value="No" style="edgeLabel;html=1;align=center;verticalAlign=middle;resizable=0;points=[];" parent="0LXEsNadSQLcKjnHdv3D-36" vertex="1" connectable="0">
          <mxGeometry x="-0.2183" y="-2" relative="1" as="geometry">
            <mxPoint as="offset" />
          </mxGeometry>
        </mxCell>
        <mxCell id="0LXEsNadSQLcKjnHdv3D-40" value="" style="edgeStyle=orthogonalEdgeStyle;rounded=0;orthogonalLoop=1;jettySize=auto;html=1;" parent="WIyWlLk6GJQsqaUBKTNV-1" source="0LXEsNadSQLcKjnHdv3D-34" target="0LXEsNadSQLcKjnHdv3D-39" edge="1">
          <mxGeometry relative="1" as="geometry" />
        </mxCell>
        <mxCell id="0LXEsNadSQLcKjnHdv3D-34" value="if n &amp;lt; 0" style="rhombus;whiteSpace=wrap;html=1;" parent="WIyWlLk6GJQsqaUBKTNV-1" vertex="1">
          <mxGeometry x="1557" y="790" width="80" height="80" as="geometry" />
        </mxCell>
        <mxCell id="0LXEsNadSQLcKjnHdv3D-35" value="if (str(Array[n])[right] not in dict) or&lt;br&gt;(str(Array[n])[left] != dict[str(Array[n])[right])" style="rhombus;whiteSpace=wrap;html=1;" parent="WIyWlLk6GJQsqaUBKTNV-1" vertex="1">
          <mxGeometry x="1837" y="320.25" width="330" height="200" as="geometry" />
        </mxCell>
        <mxCell id="0LXEsNadSQLcKjnHdv3D-39" value="return stro_list[::-1]" style="ellipse;whiteSpace=wrap;html=1;" parent="WIyWlLk6GJQsqaUBKTNV-1" vertex="1">
          <mxGeometry x="1537" y="690" width="120" height="60" as="geometry" />
        </mxCell>
        <mxCell id="0LXEsNadSQLcKjnHdv3D-42" style="edgeStyle=orthogonalEdgeStyle;rounded=0;orthogonalLoop=1;jettySize=auto;html=1;entryX=0;entryY=1;entryDx=0;entryDy=0;exitX=0.875;exitY=0.5;exitDx=0;exitDy=0;exitPerimeter=0;" parent="WIyWlLk6GJQsqaUBKTNV-1" source="0LXEsNadSQLcKjnHdv3D-41" target="0LXEsNadSQLcKjnHdv3D-34" edge="1">
          <mxGeometry relative="1" as="geometry" />
        </mxCell>
        <mxCell id="0LXEsNadSQLcKjnHdv3D-41" value="Terminal Condition of the Recursion:&lt;br&gt;If the n &amp;lt; o, it sends the list and &lt;br&gt;finishes the recursion. If n is not &amp;lt; 0, the we&amp;nbsp;&lt;br&gt;call the function again, executing the recursion:&lt;br&gt;&lt;div&gt;&amp;nbsp; &amp;nbsp; &amp;nbsp; &amp;nbsp; return strobogrammatic_recursive(n-1, stro_list)&lt;/div&gt;&lt;div&gt;&lt;br&gt;&lt;/div&gt;" style="ellipse;shape=cloud;whiteSpace=wrap;html=1;" parent="WIyWlLk6GJQsqaUBKTNV-1" vertex="1">
          <mxGeometry x="1097" y="880" width="440" height="210" as="geometry" />
        </mxCell>
        <mxCell id="C8QLcQqAlrhgvGibjwOG-2" value="stro_chars = dict({&lt;br&gt;&quot;0&quot;:&quot;0&quot;,&lt;br&gt;&quot;1&quot;:&quot;1&quot;,&lt;br&gt;&quot;6&quot;:&quot;9&quot;,&lt;br&gt;&quot;8&quot;:&quot;8&quot;&lt;br&gt;&quot;9&quot;:&quot;6&quot;&lt;br&gt;})" style="whiteSpace=wrap;html=1;aspect=fixed;" vertex="1" parent="WIyWlLk6GJQsqaUBKTNV-1">
          <mxGeometry x="-700" y="390.25" width="164" height="164" as="geometry" />
        </mxCell>
        <mxCell id="C8QLcQqAlrhgvGibjwOG-8" value="Yes" style="edgeStyle=orthogonalEdgeStyle;rounded=0;orthogonalLoop=1;jettySize=auto;html=1;" edge="1" parent="WIyWlLk6GJQsqaUBKTNV-1" source="C8QLcQqAlrhgvGibjwOG-5" target="C8QLcQqAlrhgvGibjwOG-7">
          <mxGeometry relative="1" as="geometry" />
        </mxCell>
        <mxCell id="C8QLcQqAlrhgvGibjwOG-10" value="No" style="edgeStyle=orthogonalEdgeStyle;rounded=0;orthogonalLoop=1;jettySize=auto;html=1;" edge="1" parent="WIyWlLk6GJQsqaUBKTNV-1" source="C8QLcQqAlrhgvGibjwOG-5" target="C8QLcQqAlrhgvGibjwOG-9">
          <mxGeometry relative="1" as="geometry" />
        </mxCell>
        <mxCell id="C8QLcQqAlrhgvGibjwOG-5" value="if n == 0" style="rhombus;whiteSpace=wrap;html=1;" vertex="1" parent="WIyWlLk6GJQsqaUBKTNV-1">
          <mxGeometry x="-470" y="770" width="80" height="80" as="geometry" />
        </mxCell>
        <mxCell id="C8QLcQqAlrhgvGibjwOG-7" value="return [&#39;0&#39;]" style="ellipse;whiteSpace=wrap;html=1;" vertex="1" parent="WIyWlLk6GJQsqaUBKTNV-1">
          <mxGeometry x="-490" y="654" width="120" height="60" as="geometry" />
        </mxCell>
        <mxCell id="C8QLcQqAlrhgvGibjwOG-12" value="" style="edgeStyle=orthogonalEdgeStyle;rounded=0;orthogonalLoop=1;jettySize=auto;html=1;" edge="1" parent="WIyWlLk6GJQsqaUBKTNV-1" source="C8QLcQqAlrhgvGibjwOG-9" target="C8QLcQqAlrhgvGibjwOG-11">
          <mxGeometry relative="1" as="geometry" />
        </mxCell>
        <mxCell id="C8QLcQqAlrhgvGibjwOG-15" value="No" style="edgeStyle=orthogonalEdgeStyle;rounded=0;orthogonalLoop=1;jettySize=auto;html=1;" edge="1" parent="WIyWlLk6GJQsqaUBKTNV-1" source="C8QLcQqAlrhgvGibjwOG-9" target="UAvPD8WfjczdkTZnf0Nm-78">
          <mxGeometry relative="1" as="geometry" />
        </mxCell>
        <mxCell id="C8QLcQqAlrhgvGibjwOG-9" value="if n == 1" style="rhombus;whiteSpace=wrap;html=1;" vertex="1" parent="WIyWlLk6GJQsqaUBKTNV-1">
          <mxGeometry x="-330" y="770" width="80" height="80" as="geometry" />
        </mxCell>
        <mxCell id="C8QLcQqAlrhgvGibjwOG-11" value="return [&#39;1&#39;, &#39;0&#39;, &#39;8&#39;]" style="ellipse;whiteSpace=wrap;html=1;" vertex="1" parent="WIyWlLk6GJQsqaUBKTNV-1">
          <mxGeometry x="-350" y="654" width="120" height="60" as="geometry" />
        </mxCell>
      </root>
    </mxGraphModel>
  </diagram>
</mxfile>
